# xmcd CD database file
#
# Track frame offsets:
#	150
#	16889
#	41942
#	68184
#	95521
#	115448
#	152931
#	173956
#	191459
#	205707
#	230679
#	264193
#
# Disc length: 3990 seconds
#
# Revision: 0
# Processed by: cddbd v1.5.1PL2 Copyright (c) Steve Scherf et al.
# Submitted via: CDex 1.51
#
DISCID=a40f940c
DTITLE=Red House - Dog Bone Blues
DYEAR=1900
DGENRE=Blues
TTITLE0=Dog bone blues
TTITLE1=Let me know
TTITLE2=The thrill is gone
TTITLE3=Shut up
TTITLE4=I'm gonna do you wrong
TTITLE5=Red house
TTITLE6=Riding with the king
TTITLE7=Silent man
TTITLE8=Come together
TTITLE9=Spread your wings
TTITLE10=Wang dang doodle
TTITLE11=Working too hard
EXTD=
EXTT0=
EXTT1=
EXTT2=
EXTT3=
EXTT4=
EXTT5=
EXTT6=
EXTT7=
EXTT8=
EXTT9=
EXTT10=
EXTT11=
PLAYORDER=
